<?xml version="1.0" encoding="utf-8"?>
<!-- Generator: Adobe Illustrator 24.0.0, SVG Export Plug-In . SVG Version: 6.00 Build 0)  -->
<svg version="1.1" id="Layer_1" xmlns="http://www.w3.org/2000/svg" xmlns:xlink="http://www.w3.org/1999/xlink" x="0px" y="0px"
	 viewBox="0 0 1000 1000" style="enable-background:new 0 0 1000 1000;" xml:space="preserve">
<style type="text/css">
	.st0{fill:#BAF4ED;}
	.st1{fill:#BDF2BB;}
	.st2{fill:#E8BBF2;}
	.st3{fill:#C5BBEF;}
	.st4{fill:url(#SVGID_1_);}
	.st5{fill:url(#SVGID_2_);}
	.st6{fill:url(#SVGID_3_);}
	.st7{opacity:0.28;fill:url(#SVGID_4_);}
	.st8{fill:url(#SVGID_5_);}
	.st9{fill:url(#SVGID_6_);}
	.st10{opacity:0.29;fill:url(#SVGID_7_);}
	.st11{fill:url(#SVGID_8_);}
	.st12{opacity:0.27;fill:url(#SVGID_9_);}
	.st13{fill:#BACFED;}
	.st14{fill:#FBDDE4;}
	.st15{fill:#BFBBDE;}
	.st16{fill:#A5A9D6;}
	.st17{opacity:0.38;}
	.st18{fill:url(#SVGID_10_);}
	.st19{fill:url(#SVGID_11_);}
	.st20{fill:url(#SVGID_12_);}
	.st21{fill:url(#SVGID_13_);}
	.st22{fill:url(#SVGID_14_);}
	.st23{fill:url(#SVGID_15_);}
	.st24{fill:url(#SVGID_16_);}
	.st25{fill:none;stroke:#000000;stroke-width:0.25;stroke-miterlimit:10;}
	.st26{fill:none;}
	.st27{fill:#927FBA;}
	.st28{opacity:0.3;fill:url(#SVGID_17_);}
	.st29{opacity:0.3;fill:url(#SVGID_18_);}
	.st30{opacity:0.3;fill:url(#SVGID_19_);}
	.st31{opacity:0.3;fill:url(#SVGID_20_);}
	.st32{opacity:0.3;fill:url(#SVGID_21_);}
	.st33{opacity:0.23;fill:url(#SVGID_22_);}
	.st34{fill:url(#SVGID_23_);}
	.st35{fill:url(#SVGID_24_);}
	.st36{fill:url(#SVGID_25_);}
	.st37{fill:url(#SVGID_26_);}
	.st38{fill:url(#SVGID_27_);}
	.st39{fill:url(#SVGID_28_);}
	.st40{fill:url(#SVGID_29_);}
	.st41{fill:url(#SVGID_30_);}
	.st42{fill:url(#SVGID_31_);}
	.st43{fill:url(#SVGID_32_);}
	.st44{fill:url(#SVGID_33_);}
	.st45{fill:url(#SVGID_34_);}
	.st46{fill:url(#SVGID_35_);}
	.st47{fill:url(#SVGID_36_);}
	.st48{fill:url(#SVGID_37_);}
	.st49{fill:url(#SVGID_38_);}
	.st50{fill:url(#SVGID_39_);}
	.st51{fill:url(#SVGID_40_);}
	.st52{fill:url(#SVGID_41_);}
	.st53{fill:url(#SVGID_42_);}
	.st54{fill:url(#SVGID_43_);}
	.st55{fill:url(#SVGID_44_);}
	.st56{fill:url(#SVGID_45_);}
	.st57{fill:url(#SVGID_46_);}
	.st58{fill:url(#SVGID_47_);}
	.st59{fill:url(#SVGID_48_);}
	.st60{fill:url(#SVGID_49_);}
	.st61{fill:url(#SVGID_50_);}
	.st62{fill:url(#SVGID_51_);}
	.st63{fill:url(#SVGID_52_);}
	.st64{fill:url(#SVGID_53_);}
	.st65{fill:url(#SVGID_54_);}
	.st66{fill:url(#SVGID_55_);}
	.st67{fill:url(#SVGID_56_);}
	.st68{fill:url(#SVGID_57_);}
	.st69{fill:url(#SVGID_58_);}
	.st70{fill:url(#SVGID_59_);}
	.st71{fill:url(#SVGID_60_);}
	.st72{fill:url(#SVGID_61_);}
	.st73{fill:url(#SVGID_62_);}
	.st74{fill:url(#SVGID_63_);}
	.st75{fill:url(#SVGID_64_);}
	.st76{fill:url(#SVGID_65_);}
	.st77{fill:url(#SVGID_66_);}
	.st78{fill:url(#SVGID_67_);}
	.st79{fill:url(#SVGID_68_);}
	.st80{fill:url(#SVGID_69_);}
	.st81{fill:url(#SVGID_70_);}
	.st82{fill:url(#SVGID_71_);}
	.st83{fill:url(#SVGID_72_);}
	.st84{fill:url(#SVGID_73_);}
	.st85{fill:url(#SVGID_74_);}
	.st86{fill:url(#SVGID_75_);}
	.st87{fill:url(#SVGID_76_);}
	.st88{fill:url(#SVGID_77_);}
	.st89{fill:url(#SVGID_78_);}
	.st90{fill:url(#SVGID_79_);}
	.st91{fill:url(#SVGID_80_);}
	.st92{fill:url(#SVGID_81_);}
	.st93{fill:url(#SVGID_82_);}
	.st94{fill:url(#SVGID_83_);}
	.st95{fill:url(#SVGID_84_);}
	.st96{fill:url(#SVGID_85_);}
	.st97{fill:url(#SVGID_86_);}
	.st98{fill:url(#SVGID_87_);}
	.st99{fill:url(#SVGID_88_);}
	.st100{fill:url(#SVGID_89_);}
	.st101{fill:url(#SVGID_90_);}
	.st102{fill:url(#SVGID_91_);}
	.st103{fill:url(#SVGID_92_);}
	.st104{fill:url(#SVGID_93_);}
	.st105{fill:url(#SVGID_94_);}
	.st106{fill:url(#SVGID_95_);}
	.st107{fill:url(#SVGID_96_);}
	.st108{fill:url(#SVGID_97_);}
	.st109{fill:url(#SVGID_98_);}
	.st110{fill:url(#SVGID_99_);}
	.st111{fill:url(#SVGID_100_);}
	.st112{fill:url(#SVGID_101_);}
	.st113{fill:url(#SVGID_102_);}
	.st114{fill:url(#SVGID_103_);}
	.st115{fill:url(#SVGID_104_);}
	.st116{fill:url(#SVGID_105_);}
	.st117{fill:url(#SVGID_106_);}
	.st118{fill:url(#SVGID_107_);}
	.st119{fill:url(#SVGID_108_);}
	.st120{fill:url(#SVGID_109_);}
	.st121{fill:url(#SVGID_110_);}
	.st122{fill:url(#SVGID_111_);}
	.st123{fill:url(#SVGID_112_);}
	.st124{fill:url(#SVGID_113_);}
	.st125{fill:url(#SVGID_114_);}
	.st126{fill:url(#SVGID_115_);}
	.st127{fill:url(#SVGID_116_);}
	.st128{fill:url(#SVGID_117_);}
	.st129{fill:url(#SVGID_118_);}
	.st130{fill:url(#SVGID_119_);}
	.st131{fill:url(#SVGID_120_);}
	.st132{fill:url(#SVGID_121_);}
	.st133{fill:url(#SVGID_122_);}
	.st134{fill:url(#SVGID_123_);}
	.st135{fill:url(#SVGID_124_);}
	.st136{fill:url(#SVGID_125_);}
	.st137{fill:url(#SVGID_126_);}
	.st138{fill:url(#SVGID_127_);}
	.st139{fill:url(#SVGID_128_);}
	.st140{fill:url(#SVGID_129_);}
	.st141{fill:url(#SVGID_130_);}
	.st142{fill:url(#SVGID_131_);}
	.st143{fill:url(#SVGID_132_);}
	.st144{fill:url(#SVGID_133_);}
	.st145{fill:url(#SVGID_134_);}
	.st146{fill:url(#SVGID_135_);}
	.st147{fill:url(#SVGID_136_);}
	.st148{fill:url(#SVGID_137_);}
	.st149{fill:url(#SVGID_138_);}
	.st150{fill:url(#SVGID_139_);}
	.st151{fill:url(#SVGID_140_);}
	.st152{fill:url(#SVGID_141_);}
	.st153{fill:url(#SVGID_142_);}
	.st154{fill:url(#SVGID_143_);}
	.st155{fill:url(#SVGID_144_);}
	.st156{fill:url(#SVGID_145_);}
	.st157{fill:url(#SVGID_146_);}
	.st158{fill:url(#SVGID_147_);}
	.st159{fill:url(#SVGID_148_);}
	.st160{fill:url(#SVGID_149_);}
	.st161{fill:url(#SVGID_150_);}
	.st162{fill:url(#SVGID_151_);}
	.st163{fill:url(#SVGID_152_);}
	.st164{fill:url(#SVGID_153_);}
	.st165{fill:url(#SVGID_154_);}
	.st166{fill:url(#SVGID_155_);}
	.st167{fill:url(#SVGID_156_);}
	.st168{fill:url(#SVGID_157_);}
	.st169{fill:url(#SVGID_158_);}
	.st170{fill:url(#SVGID_159_);}
	.st171{fill:url(#SVGID_160_);}
	.st172{fill:url(#SVGID_161_);}
	.st173{fill:url(#SVGID_162_);}
	.st174{fill:url(#SVGID_163_);}
	.st175{fill:url(#SVGID_164_);}
	.st176{fill:url(#SVGID_165_);}
	.st177{fill:url(#SVGID_166_);}
	.st178{fill:url(#SVGID_167_);}
	.st179{fill:url(#SVGID_168_);}
	.st180{fill:url(#SVGID_169_);}
	.st181{fill:url(#SVGID_170_);}
	.st182{fill:url(#SVGID_171_);}
	.st183{fill:url(#SVGID_172_);}
	.st184{fill:url(#SVGID_173_);}
	.st185{fill:url(#SVGID_174_);}
	.st186{fill:url(#SVGID_175_);}
	.st187{fill:url(#SVGID_176_);}
	.st188{fill:url(#SVGID_177_);}
	.st189{fill:url(#SVGID_178_);}
	.st190{fill:url(#SVGID_179_);}
	.st191{fill:url(#SVGID_180_);}
	.st192{fill:url(#SVGID_181_);}
	.st193{fill:url(#SVGID_182_);}
	.st194{fill:url(#SVGID_183_);}
	.st195{fill:url(#SVGID_184_);}
	.st196{fill:url(#SVGID_185_);}
	.st197{fill:url(#SVGID_186_);}
	.st198{fill:url(#SVGID_187_);}
	.st199{fill:url(#SVGID_188_);}
	.st200{fill:url(#SVGID_189_);}
	.st201{fill:url(#SVGID_190_);}
	.st202{fill:url(#SVGID_191_);}
	.st203{fill:url(#SVGID_192_);}
	.st204{fill:url(#SVGID_193_);}
	.st205{fill:url(#SVGID_194_);}
	.st206{fill:url(#SVGID_195_);}
	.st207{fill:url(#SVGID_196_);}
	.st208{fill:url(#SVGID_197_);}
	.st209{fill:url(#SVGID_198_);}
	.st210{fill:url(#SVGID_199_);}
	.st211{fill:url(#SVGID_200_);}
	.st212{fill:url(#SVGID_201_);}
	.st213{fill:url(#SVGID_202_);}
	.st214{fill:url(#SVGID_203_);}
	.st215{fill:url(#SVGID_204_);}
	.st216{fill:url(#SVGID_205_);}
	.st217{fill:url(#SVGID_206_);}
	.st218{fill:url(#SVGID_207_);}
	.st219{fill:url(#SVGID_208_);}
	.st220{fill:url(#SVGID_209_);}
	.st221{fill:url(#SVGID_210_);}
	.st222{fill:url(#SVGID_211_);}
	.st223{fill:url(#SVGID_212_);}
	.st224{fill:url(#SVGID_213_);}
	.st225{fill:url(#SVGID_214_);}
	.st226{fill:url(#SVGID_215_);}
	.st227{fill:url(#SVGID_216_);}
	.st228{fill:url(#SVGID_217_);}
	.st229{fill:url(#SVGID_218_);}
	.st230{fill:url(#SVGID_219_);}
	.st231{fill:url(#SVGID_220_);}
	.st232{fill:url(#SVGID_221_);}
	.st233{fill:url(#SVGID_222_);}
	.st234{fill:url(#SVGID_223_);}
	.st235{fill:url(#SVGID_224_);}
	.st236{fill:url(#SVGID_225_);}
	.st237{fill:url(#SVGID_226_);}
	.st238{fill:url(#SVGID_227_);}
	.st239{fill:url(#SVGID_228_);}
	.st240{fill:url(#SVGID_229_);}
	.st241{fill:url(#SVGID_230_);}
	.st242{fill:url(#SVGID_231_);}
	.st243{fill:url(#SVGID_232_);}
	.st244{fill:url(#SVGID_233_);}
	.st245{fill:url(#SVGID_234_);}
	.st246{fill:url(#SVGID_235_);}
	.st247{fill:url(#SVGID_236_);}
	.st248{fill:url(#SVGID_237_);}
	.st249{fill:url(#SVGID_238_);}
	.st250{fill:url(#SVGID_239_);}
	.st251{fill:url(#SVGID_240_);}
	.st252{fill:url(#SVGID_241_);}
	.st253{fill:url(#SVGID_242_);}
	.st254{fill:url(#SVGID_243_);}
	.st255{fill:url(#SVGID_244_);}
	.st256{fill:url(#SVGID_245_);}
	.st257{fill:url(#SVGID_246_);}
	.st258{fill:url(#SVGID_247_);}
	.st259{fill:url(#SVGID_248_);}
	.st260{fill:url(#SVGID_249_);}
	.st261{fill:url(#SVGID_250_);}
	.st262{fill:url(#SVGID_251_);}
	.st263{fill:url(#SVGID_252_);}
	.st264{fill:url(#SVGID_253_);}
	.st265{fill:url(#SVGID_254_);}
	.st266{fill:url(#SVGID_255_);}
	.st267{fill:url(#SVGID_256_);}
	.st268{fill:url(#SVGID_257_);}
	.st269{fill:url(#SVGID_258_);}
	.st270{fill:url(#SVGID_259_);}
	.st271{fill:url(#SVGID_260_);}
	.st272{fill:url(#SVGID_261_);}
	.st273{fill:url(#SVGID_262_);}
	.st274{fill:url(#SVGID_263_);}
	.st275{fill:url(#SVGID_264_);}
	.st276{fill:url(#SVGID_265_);}
	.st277{fill:url(#SVGID_266_);}
	.st278{fill:url(#SVGID_267_);}
	.st279{fill:url(#SVGID_268_);}
	.st280{fill:url(#SVGID_269_);}
	.st281{fill:url(#SVGID_270_);}
	.st282{fill:url(#SVGID_271_);}
	.st283{fill:url(#SVGID_272_);}
	.st284{fill:url(#SVGID_273_);}
	.st285{fill:url(#SVGID_274_);}
	.st286{fill:url(#SVGID_275_);}
	.st287{fill:url(#SVGID_276_);}
	.st288{fill:url(#SVGID_277_);}
	.st289{fill:url(#SVGID_278_);}
	.st290{fill:url(#SVGID_279_);}
	.st291{fill:url(#SVGID_280_);}
	.st292{fill:url(#SVGID_281_);}
	.st293{fill:#080072;}
	.st294{opacity:0.49;}
	.st295{fill:url(#SVGID_282_);}
	.st296{fill:url(#SVGID_283_);}
	.st297{fill:url(#SVGID_284_);}
	.st298{fill:url(#SVGID_285_);}
	.st299{fill:url(#SVGID_286_);}
	.st300{fill:url(#SVGID_287_);}
	.st301{fill:url(#SVGID_288_);}
	.st302{fill:url(#SVGID_289_);}
	.st303{fill:url(#SVGID_290_);}
	.st304{fill:url(#SVGID_291_);}
	.st305{fill:url(#SVGID_292_);}
	.st306{fill:url(#SVGID_293_);}
	.st307{fill:url(#SVGID_294_);}
	.st308{fill:url(#SVGID_295_);}
	.st309{fill:url(#SVGID_296_);}
	.st310{fill:url(#SVGID_297_);}
	.st311{fill:url(#SVGID_298_);}
	.st312{fill:url(#SVGID_299_);}
	.st313{fill:url(#SVGID_300_);}
	.st314{fill:url(#SVGID_301_);}
	.st315{fill:url(#SVGID_302_);}
	.st316{fill:url(#SVGID_303_);}
	.st317{fill:url(#SVGID_304_);}
	.st318{fill:url(#SVGID_305_);}
	.st319{fill:url(#SVGID_306_);}
	.st320{fill:url(#SVGID_307_);}
	.st321{fill:url(#SVGID_308_);}
	.st322{fill:url(#SVGID_309_);}
	.st323{fill:url(#SVGID_310_);}
	.st324{fill:url(#SVGID_311_);}
	.st325{fill:url(#SVGID_312_);}
	.st326{fill:url(#SVGID_313_);}
	.st327{fill:url(#SVGID_314_);}
	.st328{fill:url(#SVGID_315_);}
	.st329{fill:url(#SVGID_316_);}
	.st330{fill:url(#SVGID_317_);}
	.st331{fill:url(#SVGID_318_);}
	.st332{fill:url(#SVGID_319_);}
	.st333{fill:url(#SVGID_320_);}
	.st334{fill:url(#SVGID_321_);}
	.st335{fill:url(#SVGID_322_);}
	.st336{fill:url(#SVGID_323_);}
	.st337{fill:url(#SVGID_324_);}
	.st338{fill:url(#SVGID_325_);}
	.st339{fill:url(#SVGID_326_);}
	.st340{fill:url(#SVGID_327_);}
	.st341{fill:url(#SVGID_328_);}
	.st342{fill:url(#SVGID_329_);}
	.st343{fill:url(#SVGID_330_);}
	.st344{fill:url(#SVGID_331_);}
	.st345{fill:url(#SVGID_332_);}
	.st346{fill:url(#SVGID_333_);}
	.st347{fill:url(#SVGID_334_);}
	.st348{fill:url(#SVGID_335_);}
	.st349{fill:url(#SVGID_336_);}
	.st350{fill:url(#SVGID_337_);}
	.st351{fill:url(#SVGID_338_);}
	.st352{fill:url(#SVGID_339_);}
	.st353{fill:url(#SVGID_340_);}
	.st354{fill:url(#SVGID_341_);}
	.st355{fill:url(#SVGID_342_);}
	.st356{fill:url(#SVGID_343_);}
	.st357{fill:url(#SVGID_344_);}
	.st358{fill:url(#SVGID_345_);}
	.st359{fill:url(#SVGID_346_);}
	.st360{fill:url(#SVGID_347_);}
	.st361{fill:url(#SVGID_348_);}
	.st362{fill:url(#SVGID_349_);}
	.st363{fill:url(#SVGID_350_);}
	.st364{fill:url(#SVGID_351_);}
	.st365{fill:url(#SVGID_352_);}
	.st366{fill:url(#SVGID_353_);}
	.st367{fill:url(#SVGID_354_);}
	.st368{fill:url(#SVGID_355_);}
	.st369{fill:url(#SVGID_356_);}
	.st370{fill:url(#SVGID_357_);}
	.st371{fill:url(#SVGID_358_);}
	.st372{fill:url(#SVGID_359_);}
	.st373{fill:url(#SVGID_360_);}
	.st374{fill:url(#SVGID_361_);}
	.st375{fill:url(#SVGID_362_);}
	.st376{fill:url(#SVGID_363_);}
	.st377{fill:url(#SVGID_364_);}
	.st378{fill:url(#SVGID_365_);}
	.st379{fill:url(#SVGID_366_);}
	.st380{fill:url(#SVGID_367_);}
	.st381{fill:url(#SVGID_368_);}
	.st382{fill:url(#SVGID_369_);}
	.st383{fill:url(#SVGID_370_);}
	.st384{fill:url(#SVGID_371_);}
	.st385{fill:url(#SVGID_372_);}
	.st386{fill:url(#SVGID_373_);}
	.st387{fill:url(#SVGID_374_);}
	.st388{fill:url(#SVGID_375_);}
	.st389{fill:url(#SVGID_376_);}
	.st390{fill:url(#SVGID_377_);}
	.st391{fill:url(#SVGID_378_);}
	.st392{fill:url(#SVGID_379_);}
	.st393{fill:url(#SVGID_380_);}
	.st394{fill:url(#SVGID_381_);}
	.st395{fill:url(#SVGID_382_);}
	.st396{fill:url(#SVGID_383_);}
	.st397{fill:url(#SVGID_384_);}
	.st398{fill:url(#SVGID_385_);}
	.st399{fill:url(#SVGID_386_);}
	.st400{fill:url(#SVGID_387_);}
	.st401{fill:url(#SVGID_388_);}
	.st402{fill:url(#SVGID_389_);}
	.st403{fill:url(#SVGID_390_);}
	.st404{fill:url(#SVGID_391_);}
	.st405{fill:url(#SVGID_392_);}
	.st406{fill:url(#SVGID_393_);}
	.st407{fill:url(#SVGID_394_);}
	.st408{fill:url(#SVGID_395_);}
	.st409{fill:url(#SVGID_396_);}
	.st410{fill:url(#SVGID_397_);}
	.st411{fill:url(#SVGID_398_);}
	.st412{fill:url(#SVGID_399_);}
	.st413{fill:url(#SVGID_400_);}
	.st414{fill:url(#SVGID_401_);}
	.st415{fill:url(#SVGID_402_);}
	.st416{fill:url(#SVGID_403_);}
	.st417{fill:url(#SVGID_404_);}
	.st418{fill:url(#SVGID_405_);}
	.st419{fill:url(#SVGID_406_);}
	.st420{fill:url(#SVGID_407_);}
	.st421{fill:url(#SVGID_408_);}
	.st422{fill:url(#SVGID_409_);}
	.st423{fill:url(#SVGID_410_);}
	.st424{fill:url(#SVGID_411_);}
	.st425{fill:url(#SVGID_412_);}
	.st426{fill:url(#SVGID_413_);}
	.st427{fill:url(#SVGID_414_);}
	.st428{fill:url(#SVGID_415_);}
	.st429{fill:url(#SVGID_416_);}
	.st430{fill:url(#SVGID_417_);}
	.st431{fill:url(#SVGID_418_);}
	.st432{fill:url(#SVGID_419_);}
	.st433{fill:url(#SVGID_420_);}
	.st434{fill:url(#SVGID_421_);}
	.st435{fill:url(#SVGID_422_);}
	.st436{fill:url(#SVGID_423_);}
	.st437{fill:url(#SVGID_424_);}
	.st438{fill:url(#SVGID_425_);}
	.st439{fill:url(#SVGID_426_);}
	.st440{fill:url(#SVGID_427_);}
	.st441{fill:url(#SVGID_428_);}
	.st442{fill:url(#SVGID_429_);}
	.st443{fill:url(#SVGID_430_);}
	.st444{fill:url(#SVGID_431_);}
	.st445{fill:url(#SVGID_432_);}
	.st446{fill:url(#SVGID_433_);}
	.st447{fill:url(#SVGID_434_);}
	.st448{fill:url(#SVGID_435_);}
	.st449{fill:url(#SVGID_436_);}
	.st450{fill:url(#SVGID_437_);}
	.st451{fill:url(#SVGID_438_);}
	.st452{fill:url(#SVGID_439_);}
	.st453{fill:url(#SVGID_440_);}
	.st454{fill:url(#SVGID_441_);}
	.st455{fill:url(#SVGID_442_);}
	.st456{fill:url(#SVGID_443_);}
	.st457{fill:url(#SVGID_444_);}
	.st458{fill:url(#SVGID_445_);}
	.st459{fill:url(#SVGID_446_);}
	.st460{fill:url(#SVGID_447_);}
	.st461{fill:url(#SVGID_448_);}
	.st462{fill:url(#SVGID_449_);}
	.st463{fill:url(#SVGID_450_);}
	.st464{fill:url(#SVGID_451_);}
	.st465{fill:url(#SVGID_452_);}
	.st466{fill:url(#SVGID_453_);}
	.st467{fill:url(#SVGID_454_);}
	.st468{fill:url(#SVGID_455_);}
	.st469{fill:url(#SVGID_456_);}
	.st470{fill:url(#SVGID_457_);}
	.st471{fill:url(#SVGID_458_);}
	.st472{fill:url(#SVGID_459_);}
	.st473{fill:url(#SVGID_460_);}
	.st474{fill:url(#SVGID_461_);}
	.st475{fill:url(#SVGID_462_);}
	.st476{fill:url(#SVGID_463_);}
	.st477{fill:url(#SVGID_464_);}
	.st478{fill:url(#SVGID_465_);}
	.st479{fill:url(#SVGID_466_);}
	.st480{fill:url(#SVGID_467_);}
	.st481{fill:url(#SVGID_468_);}
	.st482{fill:url(#SVGID_469_);}
	.st483{fill:url(#SVGID_470_);}
	.st484{fill:url(#SVGID_471_);}
	.st485{fill:url(#SVGID_472_);}
	.st486{fill:url(#SVGID_473_);}
	.st487{fill:url(#SVGID_474_);}
	.st488{fill:url(#SVGID_475_);}
	.st489{fill:url(#SVGID_476_);}
	.st490{fill:url(#SVGID_477_);}
	.st491{fill:url(#SVGID_478_);}
	.st492{fill:url(#SVGID_479_);}
	.st493{fill:url(#SVGID_480_);}
	.st494{fill:url(#SVGID_481_);}
	.st495{fill:url(#SVGID_482_);}
	.st496{fill:url(#SVGID_483_);}
	.st497{fill:url(#SVGID_484_);}
	.st498{fill:url(#SVGID_485_);}
	.st499{fill:url(#SVGID_486_);}
	.st500{fill:url(#SVGID_487_);}
	.st501{fill:url(#SVGID_488_);}
	.st502{fill:url(#SVGID_489_);}
	.st503{fill:url(#SVGID_490_);}
	.st504{fill:url(#SVGID_491_);}
	.st505{fill:url(#SVGID_492_);}
	.st506{fill:url(#SVGID_493_);}
	.st507{fill:url(#SVGID_494_);}
	.st508{fill:url(#SVGID_495_);}
	.st509{fill:url(#SVGID_496_);}
	.st510{fill:url(#SVGID_497_);}
	.st511{fill:url(#SVGID_498_);}
	.st512{fill:url(#SVGID_499_);}
	.st513{fill:url(#SVGID_500_);}
	.st514{fill:url(#SVGID_501_);}
	.st515{fill:url(#SVGID_502_);}
	.st516{fill:url(#SVGID_503_);}
	.st517{fill:url(#SVGID_504_);}
	.st518{fill:url(#SVGID_505_);}
	.st519{fill:url(#SVGID_506_);}
	.st520{fill:url(#SVGID_507_);}
	.st521{fill:url(#SVGID_508_);}
	.st522{fill:url(#SVGID_509_);}
	.st523{fill:url(#SVGID_510_);}
	.st524{fill:url(#SVGID_511_);}
	.st525{fill:url(#SVGID_512_);}
	.st526{fill:url(#SVGID_513_);}
	.st527{fill:url(#SVGID_514_);}
	.st528{fill:url(#SVGID_515_);}
	.st529{fill:url(#SVGID_516_);}
	.st530{fill:url(#SVGID_517_);}
	.st531{fill:url(#SVGID_518_);}
	.st532{fill:url(#SVGID_519_);}
	.st533{fill:url(#SVGID_520_);}
	.st534{fill:url(#SVGID_521_);}
	.st535{fill:url(#SVGID_522_);}
	.st536{fill:url(#SVGID_523_);}
	.st537{fill:url(#SVGID_524_);}
	.st538{fill:url(#SVGID_525_);}
	.st539{fill:url(#SVGID_526_);}
	.st540{fill:url(#SVGID_527_);}
	.st541{fill:url(#SVGID_528_);}
	.st542{fill:url(#SVGID_529_);}
	.st543{fill:url(#SVGID_530_);}
	.st544{fill:url(#SVGID_531_);}
	.st545{fill:url(#SVGID_532_);}
	.st546{fill:url(#SVGID_533_);}
	.st547{fill:url(#SVGID_534_);}
	.st548{fill:url(#SVGID_535_);}
	.st549{fill:url(#SVGID_536_);}
	.st550{fill:url(#SVGID_537_);}
	.st551{fill:url(#SVGID_538_);}
	.st552{fill:url(#SVGID_539_);}
	.st553{fill:url(#SVGID_540_);}
	.st554{fill:url(#SVGID_541_);}
	.st555{fill:url(#SVGID_542_);}
	.st556{fill:url(#SVGID_543_);}
	.st557{fill:url(#SVGID_544_);}
	.st558{fill:url(#SVGID_545_);}
	.st559{fill:url(#SVGID_546_);}
	.st560{fill:url(#SVGID_547_);}
	.st561{fill:url(#SVGID_548_);}
	.st562{fill:url(#SVGID_549_);}
	.st563{fill:url(#SVGID_550_);}
	.st564{fill:url(#SVGID_551_);}
	.st565{fill:url(#SVGID_552_);}
	.st566{fill:url(#SVGID_553_);}
	.st567{fill:url(#SVGID_554_);}
	.st568{fill:url(#SVGID_555_);}
	.st569{fill:url(#SVGID_556_);}
	.st570{fill:url(#SVGID_557_);}
	.st571{fill:url(#SVGID_558_);}
	.st572{fill:url(#SVGID_559_);}
	.st573{fill:url(#SVGID_560_);}
	.st574{fill:url(#SVGID_561_);}
	.st575{fill:url(#SVGID_562_);}
	.st576{fill:url(#SVGID_563_);}
	.st577{fill:url(#SVGID_564_);}
	.st578{fill:url(#SVGID_565_);}
	.st579{fill:url(#SVGID_566_);}
	.st580{fill:url(#SVGID_567_);}
	.st581{fill:url(#SVGID_568_);}
</style>
<rect class="st1" width="1000" height="1000"/>
<g>
	<polygon class="st13" points="720.27,436.72 687.41,403.86 686.19,402.64 684.98,403.86 651.4,437.44 649.83,439.01 650.06,441.21 
		656.32,500.67 656.55,502.87 658.12,501.3 720.27,439.15 721.49,437.94 	"/>
	<polygon class="st14" points="782.33,498.78 749.48,465.93 748.26,464.71 747.04,465.93 663.22,549.75 661.65,551.32 
		661.88,553.52 668.14,612.97 668.37,615.18 669.94,613.61 782.33,501.22 783.55,500 	"/>
	<polygon class="st15" points="628.33,652.78 622.07,593.33 621.84,591.13 616.74,542.68 616.51,540.48 610.25,481.02 
		610.02,478.82 604.92,430.37 644.73,390.56 646.3,389 658.2,377.09 659.42,375.87 658.2,374.65 643.21,359.66 641.27,357.72 
		625.35,341.8 624.13,340.58 622.91,341.8 598.2,366.51 596.63,368.08 556.82,407.89 555.26,409.45 555.49,411.66 561.75,471.11 
		561.98,473.31 567.08,521.76 567.31,523.96 573.57,583.42 573.8,585.62 578.9,634.07 539.09,673.88 537.52,675.44 497.71,715.26 
		496.15,716.82 465.93,747.04 464.71,748.26 465.93,749.48 498.78,782.33 500,783.55 501.22,782.33 502.87,780.68 504.43,779.12 
		544.24,739.31 545.81,737.74 585.62,697.93 587.19,696.36 627,656.55 628.56,654.99 	"/>
	<polygon class="st16" points="533.76,623.23 527.5,563.77 527.27,561.57 522.17,513.13 521.93,510.92 515.68,451.47 515.44,449.26 
		510.34,400.82 550.16,361.01 551.72,359.44 591.53,319.63 593.1,318.07 596.14,315.02 597.36,313.81 596.14,312.59 592.09,308.55 
		590.16,306.61 563.28,279.73 562.06,278.51 560.85,279.73 545,295.58 543.43,297.15 503.62,336.96 502.06,338.52 462.25,378.33 
		460.68,379.9 460.91,382.1 467.17,441.56 467.4,443.76 472.5,492.21 472.73,494.41 478.99,553.87 479.22,556.07 484.32,604.51 
		444.51,644.32 442.95,645.89 403.86,684.98 403.14,685.7 402.64,686.19 403.25,686.8 403.86,687.41 436.72,720.27 437.94,721.49 
		439.15,720.27 449.67,709.75 451.24,708.19 491.05,668.37 492.61,666.81 532.42,627 533.99,625.43 	"/>
	<polygon class="st14" points="332.79,451.81 326.53,392.36 326.3,390.16 324.73,391.72 217.67,498.78 216.45,500 217.67,501.22 
		250.52,534.07 251.74,535.29 252.96,534.07 331.45,455.58 333.02,454.02 	"/>
	<polygon class="st13" points="344.61,564.12 338.35,504.66 338.12,502.46 336.55,504.03 279.73,560.85 278.51,562.06 
		279.73,563.28 312.59,596.14 313.81,597.36 315.02,596.14 343.27,567.89 344.84,566.32 	"/>
	<polygon class="st15" points="439.18,593.68 432.92,534.22 432.69,532.02 427.59,483.57 427.36,481.37 421.1,421.91 420.87,419.71 
		415.77,371.26 455.58,331.45 457.15,329.89 496.96,290.08 498.52,288.51 534.07,252.96 535.29,251.74 534.07,250.52 501.22,217.67 
		500,216.45 498.78,217.67 491.8,224.65 490.23,226.22 450.42,266.03 448.86,267.59 409.05,307.4 407.48,308.97 367.67,348.78 
		366.11,350.34 366.34,352.55 372.6,412 372.83,414.21 377.93,462.65 378.16,464.85 384.42,524.31 384.65,526.51 389.75,574.96 
		349.94,614.77 348.37,616.34 341.8,622.91 340.58,624.13 341.8,625.35 350.21,633.76 352.14,635.69 374.65,658.2 375.87,659.42 
		377.09,658.2 396.47,638.82 398.04,637.25 437.85,597.44 439.41,595.88 	"/>
</g>
<g class="st17">
	<radialGradient id="SVGID_1_" cx="492.8022" cy="504.8022" r="370.3271" gradientUnits="userSpaceOnUse">
		<stop  offset="0" style="stop-color:#FFFFFF"/>
		<stop  offset="1" style="stop-color:#000000"/>
	</radialGradient>
	<polygon class="st4" points="721.49,437.94 720.27,436.72 687.41,403.86 686.19,402.64 684.98,403.86 651.4,437.44 649.83,439.01 
		650.06,441.21 656.32,500.67 656.55,502.87 658.12,501.3 720.27,439.15 	"/>
	<radialGradient id="SVGID_2_" cx="492.8022" cy="504.8022" r="370.3271" gradientUnits="userSpaceOnUse">
		<stop  offset="0" style="stop-color:#FFFFFF"/>
		<stop  offset="1" style="stop-color:#000000"/>
	</radialGradient>
	<polygon class="st5" points="782.33,498.78 749.48,465.93 748.26,464.71 747.04,465.93 663.22,549.75 661.65,551.32 661.88,553.52 
		668.14,612.97 668.37,615.18 669.94,613.61 782.33,501.22 783.55,500 	"/>
	<radialGradient id="SVGID_3_" cx="492.8022" cy="504.8022" r="370.3271" gradientUnits="userSpaceOnUse">
		<stop  offset="0" style="stop-color:#FFFFFF"/>
		<stop  offset="1" style="stop-color:#000000"/>
	</radialGradient>
	<polygon class="st6" points="659.42,375.87 658.2,374.65 643.21,359.66 641.27,357.72 625.35,341.8 624.13,340.58 622.91,341.8 
		598.2,366.51 596.63,368.08 556.82,407.89 555.26,409.45 555.49,411.66 561.75,471.11 561.98,473.31 567.08,521.76 567.31,523.96 
		573.57,583.42 573.8,585.62 578.9,634.07 539.09,673.88 537.52,675.44 497.71,715.26 496.15,716.82 465.93,747.04 464.71,748.26 
		465.93,749.48 498.78,782.33 500,783.55 501.22,782.33 502.87,780.68 504.43,779.12 544.24,739.31 545.81,737.74 585.62,697.93 
		587.19,696.36 627,656.55 628.56,654.99 628.33,652.78 622.07,593.33 621.84,591.13 616.74,542.68 616.51,540.48 610.25,481.02 
		610.02,478.82 604.92,430.37 644.73,390.56 646.3,389 658.2,377.09 	"/>
	<radialGradient id="SVGID_4_" cx="492.8022" cy="504.8022" r="370.3271" gradientUnits="userSpaceOnUse">
		<stop  offset="0" style="stop-color:#FFFFFF"/>
		<stop  offset="1" style="stop-color:#000000"/>
	</radialGradient>
	<polygon style="fill:url(#SVGID_4_);" points="492.61,666.81 532.42,627 533.99,625.43 533.76,623.23 527.5,563.77 527.27,561.57 
		522.17,513.13 521.93,510.92 515.68,451.47 515.44,449.26 510.34,400.82 550.16,361.01 551.72,359.44 591.53,319.63 593.1,318.07 
		596.14,315.02 597.36,313.81 596.14,312.59 592.09,308.55 590.16,306.61 563.28,279.73 562.06,278.51 560.85,279.73 545,295.58 
		543.43,297.15 503.62,336.96 502.06,338.52 462.25,378.33 460.68,379.9 460.91,382.1 467.17,441.56 467.4,443.76 472.5,492.21 
		472.73,494.41 478.99,553.87 479.22,556.07 484.32,604.51 444.51,644.32 442.95,645.89 403.86,684.98 403.14,685.7 402.64,686.19 
		403.25,686.8 403.86,687.41 436.72,720.27 437.94,721.49 439.15,720.27 449.67,709.75 451.24,708.19 491.05,668.37 	"/>
	<radialGradient id="SVGID_5_" cx="492.8022" cy="504.8022" r="370.3271" gradientUnits="userSpaceOnUse">
		<stop  offset="0" style="stop-color:#FFFFFF"/>
		<stop  offset="1" style="stop-color:#000000"/>
	</radialGradient>
	<polygon class="st8" points="333.02,454.02 332.79,451.81 326.53,392.36 326.3,390.16 324.73,391.72 217.67,498.78 216.45,500 
		217.67,501.22 250.52,534.07 251.74,535.29 252.96,534.07 331.45,455.58 	"/>
	<radialGradient id="SVGID_6_" cx="492.8022" cy="504.8022" r="370.2254" gradientUnits="userSpaceOnUse">
		<stop  offset="0" style="stop-color:#FFFFFF"/>
		<stop  offset="1" style="stop-color:#000000"/>
	</radialGradient>
	<polygon class="st9" points="344.84,566.32 344.61,564.12 338.35,504.66 338.12,502.46 336.55,504.03 279.73,560.85 278.51,562.06 
		279.73,563.28 312.59,596.14 313.81,597.36 315.02,596.14 343.27,567.89 	"/>
	<radialGradient id="SVGID_7_" cx="492.8022" cy="504.8022" r="370.3271" gradientUnits="userSpaceOnUse">
		<stop  offset="0" style="stop-color:#FFFFFF"/>
		<stop  offset="1" style="stop-color:#000000"/>
	</radialGradient>
	<polygon style="fill:url(#SVGID_7_);" points="439.41,595.88 439.18,593.68 432.92,534.22 432.69,532.02 427.59,483.57 
		427.36,481.37 421.1,421.91 420.87,419.71 415.77,371.26 455.58,331.45 457.15,329.89 496.96,290.08 498.52,288.51 534.07,252.96 
		535.29,251.74 534.07,250.52 501.22,217.67 500,216.45 498.78,217.67 491.8,224.65 490.23,226.22 450.42,266.03 448.86,267.59 
		409.05,307.4 407.48,308.97 367.67,348.78 366.11,350.34 366.34,352.55 372.6,412 372.83,414.21 377.93,462.65 378.16,464.85 
		384.42,524.31 384.65,526.51 389.75,574.96 349.94,614.77 348.37,616.34 341.8,622.91 340.58,624.13 341.8,625.35 350.21,633.76 
		352.14,635.69 374.65,658.2 375.87,659.42 377.09,658.2 396.47,638.82 398.04,637.25 437.85,597.44 	"/>
</g>
</svg>
