<?xml version="1.0" encoding="utf-8"?>
<!-- Generator: Adobe Illustrator 24.0.0, SVG Export Plug-In . SVG Version: 6.00 Build 0)  -->
<svg version="1.1" id="Layer_1" xmlns="http://www.w3.org/2000/svg" xmlns:xlink="http://www.w3.org/1999/xlink" x="0px" y="0px"
	 viewBox="0 0 1000 1000" style="enable-background:new 0 0 1000 1000;" xml:space="preserve">
<style type="text/css">
	.st0{fill:#BAF4ED;}
	.st1{fill:#BDF2BB;}
	.st2{fill:#E8BBF2;}
	.st3{fill:#C5BBEF;}
	.st4{fill:url(#SVGID_1_);}
	.st5{fill:url(#SVGID_2_);}
	.st6{fill:url(#SVGID_3_);}
	.st7{opacity:0.28;fill:url(#SVGID_4_);}
	.st8{fill:url(#SVGID_5_);}
	.st9{fill:url(#SVGID_6_);}
	.st10{opacity:0.29;fill:url(#SVGID_7_);}
	.st11{fill:url(#SVGID_8_);}
	.st12{opacity:0.27;fill:url(#SVGID_9_);}
	.st13{fill:#BACFED;}
	.st14{fill:#FBDDE4;}
	.st15{fill:#BFBBDE;}
	.st16{fill:#A5A9D6;}
	.st17{opacity:0.38;}
	.st18{fill:url(#SVGID_10_);}
	.st19{fill:url(#SVGID_11_);}
	.st20{fill:url(#SVGID_12_);}
	.st21{fill:url(#SVGID_13_);}
	.st22{fill:url(#SVGID_14_);}
	.st23{fill:url(#SVGID_15_);}
	.st24{fill:url(#SVGID_16_);}
	.st25{fill:none;stroke:#000000;stroke-width:0.25;stroke-miterlimit:10;}
	.st26{fill:none;}
	.st27{fill:#927FBA;}
	.st28{opacity:0.3;fill:url(#SVGID_17_);}
	.st29{opacity:0.3;fill:url(#SVGID_18_);}
	.st30{opacity:0.3;fill:url(#SVGID_19_);}
	.st31{opacity:0.3;fill:url(#SVGID_20_);}
	.st32{opacity:0.3;fill:url(#SVGID_21_);}
	.st33{opacity:0.23;fill:url(#SVGID_22_);}
	.st34{fill:url(#SVGID_23_);}
	.st35{fill:url(#SVGID_24_);}
	.st36{fill:url(#SVGID_25_);}
	.st37{fill:url(#SVGID_26_);}
	.st38{fill:url(#SVGID_27_);}
	.st39{fill:url(#SVGID_28_);}
	.st40{fill:url(#SVGID_29_);}
	.st41{fill:url(#SVGID_30_);}
	.st42{fill:url(#SVGID_31_);}
	.st43{fill:url(#SVGID_32_);}
	.st44{fill:url(#SVGID_33_);}
	.st45{fill:url(#SVGID_34_);}
	.st46{fill:url(#SVGID_35_);}
	.st47{fill:url(#SVGID_36_);}
	.st48{fill:url(#SVGID_37_);}
	.st49{fill:url(#SVGID_38_);}
	.st50{fill:url(#SVGID_39_);}
	.st51{fill:url(#SVGID_40_);}
	.st52{fill:url(#SVGID_41_);}
	.st53{fill:url(#SVGID_42_);}
	.st54{fill:url(#SVGID_43_);}
	.st55{fill:url(#SVGID_44_);}
	.st56{fill:url(#SVGID_45_);}
	.st57{fill:url(#SVGID_46_);}
	.st58{fill:url(#SVGID_47_);}
	.st59{fill:url(#SVGID_48_);}
	.st60{fill:url(#SVGID_49_);}
	.st61{fill:url(#SVGID_50_);}
	.st62{fill:url(#SVGID_51_);}
	.st63{fill:url(#SVGID_52_);}
	.st64{fill:url(#SVGID_53_);}
	.st65{fill:url(#SVGID_54_);}
	.st66{fill:url(#SVGID_55_);}
	.st67{fill:url(#SVGID_56_);}
	.st68{fill:url(#SVGID_57_);}
	.st69{fill:url(#SVGID_58_);}
	.st70{fill:url(#SVGID_59_);}
	.st71{fill:url(#SVGID_60_);}
	.st72{fill:url(#SVGID_61_);}
	.st73{fill:url(#SVGID_62_);}
	.st74{fill:url(#SVGID_63_);}
	.st75{fill:url(#SVGID_64_);}
	.st76{fill:url(#SVGID_65_);}
	.st77{fill:url(#SVGID_66_);}
	.st78{fill:url(#SVGID_67_);}
	.st79{fill:url(#SVGID_68_);}
	.st80{fill:url(#SVGID_69_);}
	.st81{fill:url(#SVGID_70_);}
	.st82{fill:url(#SVGID_71_);}
	.st83{fill:url(#SVGID_72_);}
	.st84{fill:url(#SVGID_73_);}
	.st85{fill:url(#SVGID_74_);}
	.st86{fill:url(#SVGID_75_);}
	.st87{fill:url(#SVGID_76_);}
	.st88{fill:url(#SVGID_77_);}
	.st89{fill:url(#SVGID_78_);}
	.st90{fill:url(#SVGID_79_);}
	.st91{fill:url(#SVGID_80_);}
	.st92{fill:url(#SVGID_81_);}
	.st93{fill:url(#SVGID_82_);}
	.st94{fill:url(#SVGID_83_);}
	.st95{fill:url(#SVGID_84_);}
	.st96{fill:url(#SVGID_85_);}
	.st97{fill:url(#SVGID_86_);}
	.st98{fill:url(#SVGID_87_);}
	.st99{fill:url(#SVGID_88_);}
	.st100{fill:url(#SVGID_89_);}
	.st101{fill:url(#SVGID_90_);}
	.st102{fill:url(#SVGID_91_);}
	.st103{fill:url(#SVGID_92_);}
	.st104{fill:url(#SVGID_93_);}
	.st105{fill:url(#SVGID_94_);}
	.st106{fill:url(#SVGID_95_);}
	.st107{fill:url(#SVGID_96_);}
	.st108{fill:url(#SVGID_97_);}
	.st109{fill:url(#SVGID_98_);}
	.st110{fill:url(#SVGID_99_);}
	.st111{fill:url(#SVGID_100_);}
	.st112{fill:url(#SVGID_101_);}
	.st113{fill:url(#SVGID_102_);}
	.st114{fill:url(#SVGID_103_);}
	.st115{fill:url(#SVGID_104_);}
	.st116{fill:url(#SVGID_105_);}
	.st117{fill:url(#SVGID_106_);}
	.st118{fill:url(#SVGID_107_);}
	.st119{fill:url(#SVGID_108_);}
	.st120{fill:url(#SVGID_109_);}
	.st121{fill:url(#SVGID_110_);}
	.st122{fill:url(#SVGID_111_);}
	.st123{fill:url(#SVGID_112_);}
	.st124{fill:url(#SVGID_113_);}
	.st125{fill:url(#SVGID_114_);}
	.st126{fill:url(#SVGID_115_);}
	.st127{fill:url(#SVGID_116_);}
	.st128{fill:url(#SVGID_117_);}
	.st129{fill:url(#SVGID_118_);}
	.st130{fill:url(#SVGID_119_);}
	.st131{fill:url(#SVGID_120_);}
	.st132{fill:url(#SVGID_121_);}
	.st133{fill:url(#SVGID_122_);}
	.st134{fill:url(#SVGID_123_);}
	.st135{fill:url(#SVGID_124_);}
	.st136{fill:url(#SVGID_125_);}
	.st137{fill:url(#SVGID_126_);}
	.st138{fill:url(#SVGID_127_);}
	.st139{fill:url(#SVGID_128_);}
	.st140{fill:url(#SVGID_129_);}
	.st141{fill:url(#SVGID_130_);}
	.st142{fill:url(#SVGID_131_);}
	.st143{fill:url(#SVGID_132_);}
	.st144{fill:url(#SVGID_133_);}
	.st145{fill:url(#SVGID_134_);}
	.st146{fill:url(#SVGID_135_);}
	.st147{fill:url(#SVGID_136_);}
	.st148{fill:url(#SVGID_137_);}
	.st149{fill:url(#SVGID_138_);}
	.st150{fill:url(#SVGID_139_);}
	.st151{fill:url(#SVGID_140_);}
	.st152{fill:url(#SVGID_141_);}
	.st153{fill:url(#SVGID_142_);}
	.st154{fill:url(#SVGID_143_);}
	.st155{fill:url(#SVGID_144_);}
	.st156{fill:url(#SVGID_145_);}
	.st157{fill:url(#SVGID_146_);}
	.st158{fill:url(#SVGID_147_);}
	.st159{fill:url(#SVGID_148_);}
	.st160{fill:url(#SVGID_149_);}
	.st161{fill:url(#SVGID_150_);}
	.st162{fill:url(#SVGID_151_);}
	.st163{fill:url(#SVGID_152_);}
	.st164{fill:url(#SVGID_153_);}
	.st165{fill:url(#SVGID_154_);}
	.st166{fill:url(#SVGID_155_);}
	.st167{fill:url(#SVGID_156_);}
	.st168{fill:url(#SVGID_157_);}
	.st169{fill:url(#SVGID_158_);}
	.st170{fill:url(#SVGID_159_);}
	.st171{fill:url(#SVGID_160_);}
	.st172{fill:url(#SVGID_161_);}
	.st173{fill:url(#SVGID_162_);}
	.st174{fill:url(#SVGID_163_);}
	.st175{fill:url(#SVGID_164_);}
	.st176{fill:url(#SVGID_165_);}
	.st177{fill:url(#SVGID_166_);}
	.st178{fill:url(#SVGID_167_);}
	.st179{fill:url(#SVGID_168_);}
	.st180{fill:url(#SVGID_169_);}
	.st181{fill:url(#SVGID_170_);}
	.st182{fill:url(#SVGID_171_);}
	.st183{fill:url(#SVGID_172_);}
	.st184{fill:url(#SVGID_173_);}
	.st185{fill:url(#SVGID_174_);}
	.st186{fill:url(#SVGID_175_);}
	.st187{fill:url(#SVGID_176_);}
	.st188{fill:url(#SVGID_177_);}
	.st189{fill:url(#SVGID_178_);}
	.st190{fill:url(#SVGID_179_);}
	.st191{fill:url(#SVGID_180_);}
	.st192{fill:url(#SVGID_181_);}
	.st193{fill:url(#SVGID_182_);}
	.st194{fill:url(#SVGID_183_);}
	.st195{fill:url(#SVGID_184_);}
	.st196{fill:url(#SVGID_185_);}
	.st197{fill:url(#SVGID_186_);}
	.st198{fill:url(#SVGID_187_);}
	.st199{fill:url(#SVGID_188_);}
	.st200{fill:url(#SVGID_189_);}
	.st201{fill:url(#SVGID_190_);}
	.st202{fill:url(#SVGID_191_);}
	.st203{fill:url(#SVGID_192_);}
	.st204{fill:url(#SVGID_193_);}
	.st205{fill:url(#SVGID_194_);}
	.st206{fill:url(#SVGID_195_);}
	.st207{fill:url(#SVGID_196_);}
	.st208{fill:url(#SVGID_197_);}
	.st209{fill:url(#SVGID_198_);}
	.st210{fill:url(#SVGID_199_);}
	.st211{fill:url(#SVGID_200_);}
	.st212{fill:url(#SVGID_201_);}
	.st213{fill:url(#SVGID_202_);}
	.st214{fill:url(#SVGID_203_);}
	.st215{fill:url(#SVGID_204_);}
	.st216{fill:url(#SVGID_205_);}
	.st217{fill:url(#SVGID_206_);}
	.st218{fill:url(#SVGID_207_);}
	.st219{fill:url(#SVGID_208_);}
	.st220{fill:url(#SVGID_209_);}
	.st221{fill:url(#SVGID_210_);}
	.st222{fill:url(#SVGID_211_);}
	.st223{fill:url(#SVGID_212_);}
	.st224{fill:url(#SVGID_213_);}
	.st225{fill:url(#SVGID_214_);}
	.st226{fill:url(#SVGID_215_);}
	.st227{fill:url(#SVGID_216_);}
	.st228{fill:url(#SVGID_217_);}
	.st229{fill:url(#SVGID_218_);}
	.st230{fill:url(#SVGID_219_);}
	.st231{fill:url(#SVGID_220_);}
	.st232{fill:url(#SVGID_221_);}
	.st233{fill:url(#SVGID_222_);}
	.st234{fill:url(#SVGID_223_);}
	.st235{fill:url(#SVGID_224_);}
	.st236{fill:url(#SVGID_225_);}
	.st237{fill:url(#SVGID_226_);}
	.st238{fill:url(#SVGID_227_);}
	.st239{fill:url(#SVGID_228_);}
	.st240{fill:url(#SVGID_229_);}
	.st241{fill:url(#SVGID_230_);}
	.st242{fill:url(#SVGID_231_);}
	.st243{fill:url(#SVGID_232_);}
	.st244{fill:url(#SVGID_233_);}
	.st245{fill:url(#SVGID_234_);}
	.st246{fill:url(#SVGID_235_);}
	.st247{fill:url(#SVGID_236_);}
	.st248{fill:url(#SVGID_237_);}
	.st249{fill:url(#SVGID_238_);}
	.st250{fill:url(#SVGID_239_);}
	.st251{fill:url(#SVGID_240_);}
	.st252{fill:url(#SVGID_241_);}
	.st253{fill:url(#SVGID_242_);}
	.st254{fill:url(#SVGID_243_);}
	.st255{fill:url(#SVGID_244_);}
	.st256{fill:url(#SVGID_245_);}
	.st257{fill:url(#SVGID_246_);}
	.st258{fill:url(#SVGID_247_);}
	.st259{fill:url(#SVGID_248_);}
	.st260{fill:url(#SVGID_249_);}
	.st261{fill:url(#SVGID_250_);}
	.st262{fill:url(#SVGID_251_);}
	.st263{fill:url(#SVGID_252_);}
	.st264{fill:url(#SVGID_253_);}
	.st265{fill:url(#SVGID_254_);}
	.st266{fill:url(#SVGID_255_);}
	.st267{fill:url(#SVGID_256_);}
	.st268{fill:url(#SVGID_257_);}
	.st269{fill:url(#SVGID_258_);}
	.st270{fill:url(#SVGID_259_);}
	.st271{fill:url(#SVGID_260_);}
	.st272{fill:url(#SVGID_261_);}
	.st273{fill:url(#SVGID_262_);}
	.st274{fill:url(#SVGID_263_);}
	.st275{fill:url(#SVGID_264_);}
	.st276{fill:url(#SVGID_265_);}
	.st277{fill:url(#SVGID_266_);}
	.st278{fill:url(#SVGID_267_);}
	.st279{fill:url(#SVGID_268_);}
	.st280{fill:url(#SVGID_269_);}
	.st281{fill:url(#SVGID_270_);}
	.st282{fill:url(#SVGID_271_);}
	.st283{fill:url(#SVGID_272_);}
	.st284{fill:url(#SVGID_273_);}
	.st285{fill:url(#SVGID_274_);}
	.st286{fill:url(#SVGID_275_);}
	.st287{fill:url(#SVGID_276_);}
	.st288{fill:url(#SVGID_277_);}
	.st289{fill:url(#SVGID_278_);}
	.st290{fill:url(#SVGID_279_);}
	.st291{fill:url(#SVGID_280_);}
	.st292{fill:url(#SVGID_281_);}
	.st293{fill:#080072;}
	.st294{opacity:0.49;}
	.st295{fill:url(#SVGID_282_);}
	.st296{fill:url(#SVGID_283_);}
	.st297{fill:url(#SVGID_284_);}
	.st298{fill:url(#SVGID_285_);}
	.st299{fill:url(#SVGID_286_);}
	.st300{fill:url(#SVGID_287_);}
	.st301{fill:url(#SVGID_288_);}
	.st302{fill:url(#SVGID_289_);}
	.st303{fill:url(#SVGID_290_);}
	.st304{fill:url(#SVGID_291_);}
	.st305{fill:url(#SVGID_292_);}
	.st306{fill:url(#SVGID_293_);}
	.st307{fill:url(#SVGID_294_);}
	.st308{fill:url(#SVGID_295_);}
	.st309{fill:url(#SVGID_296_);}
	.st310{fill:url(#SVGID_297_);}
	.st311{fill:url(#SVGID_298_);}
	.st312{fill:url(#SVGID_299_);}
	.st313{fill:url(#SVGID_300_);}
	.st314{fill:url(#SVGID_301_);}
	.st315{fill:url(#SVGID_302_);}
	.st316{fill:url(#SVGID_303_);}
	.st317{fill:url(#SVGID_304_);}
	.st318{fill:url(#SVGID_305_);}
	.st319{fill:url(#SVGID_306_);}
	.st320{fill:url(#SVGID_307_);}
	.st321{fill:url(#SVGID_308_);}
	.st322{fill:url(#SVGID_309_);}
	.st323{fill:url(#SVGID_310_);}
	.st324{fill:url(#SVGID_311_);}
	.st325{fill:url(#SVGID_312_);}
	.st326{fill:url(#SVGID_313_);}
	.st327{fill:url(#SVGID_314_);}
	.st328{fill:url(#SVGID_315_);}
	.st329{fill:url(#SVGID_316_);}
	.st330{fill:url(#SVGID_317_);}
	.st331{fill:url(#SVGID_318_);}
	.st332{fill:url(#SVGID_319_);}
	.st333{fill:url(#SVGID_320_);}
	.st334{fill:url(#SVGID_321_);}
	.st335{fill:url(#SVGID_322_);}
	.st336{fill:url(#SVGID_323_);}
	.st337{fill:url(#SVGID_324_);}
	.st338{fill:url(#SVGID_325_);}
	.st339{fill:url(#SVGID_326_);}
	.st340{fill:url(#SVGID_327_);}
	.st341{fill:url(#SVGID_328_);}
	.st342{fill:url(#SVGID_329_);}
	.st343{fill:url(#SVGID_330_);}
	.st344{fill:url(#SVGID_331_);}
	.st345{fill:url(#SVGID_332_);}
	.st346{fill:url(#SVGID_333_);}
	.st347{fill:url(#SVGID_334_);}
	.st348{fill:url(#SVGID_335_);}
	.st349{fill:url(#SVGID_336_);}
	.st350{fill:url(#SVGID_337_);}
	.st351{fill:url(#SVGID_338_);}
	.st352{fill:url(#SVGID_339_);}
	.st353{fill:url(#SVGID_340_);}
	.st354{fill:url(#SVGID_341_);}
	.st355{fill:url(#SVGID_342_);}
	.st356{fill:url(#SVGID_343_);}
	.st357{fill:url(#SVGID_344_);}
	.st358{fill:url(#SVGID_345_);}
	.st359{fill:url(#SVGID_346_);}
	.st360{fill:url(#SVGID_347_);}
	.st361{fill:url(#SVGID_348_);}
	.st362{fill:url(#SVGID_349_);}
	.st363{fill:url(#SVGID_350_);}
	.st364{fill:url(#SVGID_351_);}
	.st365{fill:url(#SVGID_352_);}
	.st366{fill:url(#SVGID_353_);}
	.st367{fill:url(#SVGID_354_);}
	.st368{fill:url(#SVGID_355_);}
	.st369{fill:url(#SVGID_356_);}
	.st370{fill:url(#SVGID_357_);}
	.st371{fill:url(#SVGID_358_);}
	.st372{fill:url(#SVGID_359_);}
	.st373{fill:url(#SVGID_360_);}
	.st374{fill:url(#SVGID_361_);}
	.st375{fill:url(#SVGID_362_);}
	.st376{fill:url(#SVGID_363_);}
	.st377{fill:url(#SVGID_364_);}
	.st378{fill:url(#SVGID_365_);}
	.st379{fill:url(#SVGID_366_);}
	.st380{fill:url(#SVGID_367_);}
	.st381{fill:url(#SVGID_368_);}
	.st382{fill:url(#SVGID_369_);}
	.st383{fill:url(#SVGID_370_);}
	.st384{fill:url(#SVGID_371_);}
	.st385{fill:url(#SVGID_372_);}
	.st386{fill:url(#SVGID_373_);}
	.st387{fill:url(#SVGID_374_);}
	.st388{fill:url(#SVGID_375_);}
	.st389{fill:url(#SVGID_376_);}
	.st390{fill:url(#SVGID_377_);}
	.st391{fill:url(#SVGID_378_);}
	.st392{fill:url(#SVGID_379_);}
	.st393{fill:url(#SVGID_380_);}
	.st394{fill:url(#SVGID_381_);}
	.st395{fill:url(#SVGID_382_);}
	.st396{fill:url(#SVGID_383_);}
	.st397{fill:url(#SVGID_384_);}
	.st398{fill:url(#SVGID_385_);}
	.st399{fill:url(#SVGID_386_);}
	.st400{fill:url(#SVGID_387_);}
	.st401{fill:url(#SVGID_388_);}
	.st402{fill:url(#SVGID_389_);}
	.st403{fill:url(#SVGID_390_);}
	.st404{fill:url(#SVGID_391_);}
	.st405{fill:url(#SVGID_392_);}
	.st406{fill:url(#SVGID_393_);}
	.st407{fill:url(#SVGID_394_);}
	.st408{fill:url(#SVGID_395_);}
	.st409{fill:url(#SVGID_396_);}
	.st410{fill:url(#SVGID_397_);}
	.st411{fill:url(#SVGID_398_);}
	.st412{fill:url(#SVGID_399_);}
	.st413{fill:url(#SVGID_400_);}
	.st414{fill:url(#SVGID_401_);}
	.st415{fill:url(#SVGID_402_);}
	.st416{fill:url(#SVGID_403_);}
	.st417{fill:url(#SVGID_404_);}
	.st418{fill:url(#SVGID_405_);}
	.st419{fill:url(#SVGID_406_);}
	.st420{fill:url(#SVGID_407_);}
	.st421{fill:url(#SVGID_408_);}
	.st422{fill:url(#SVGID_409_);}
	.st423{fill:url(#SVGID_410_);}
	.st424{fill:url(#SVGID_411_);}
	.st425{fill:url(#SVGID_412_);}
	.st426{fill:url(#SVGID_413_);}
	.st427{fill:url(#SVGID_414_);}
	.st428{fill:url(#SVGID_415_);}
	.st429{fill:url(#SVGID_416_);}
	.st430{fill:url(#SVGID_417_);}
	.st431{fill:url(#SVGID_418_);}
	.st432{fill:url(#SVGID_419_);}
	.st433{fill:url(#SVGID_420_);}
	.st434{fill:url(#SVGID_421_);}
	.st435{fill:url(#SVGID_422_);}
	.st436{fill:url(#SVGID_423_);}
	.st437{fill:url(#SVGID_424_);}
	.st438{fill:url(#SVGID_425_);}
	.st439{fill:url(#SVGID_426_);}
	.st440{fill:url(#SVGID_427_);}
	.st441{fill:url(#SVGID_428_);}
	.st442{fill:url(#SVGID_429_);}
	.st443{fill:url(#SVGID_430_);}
	.st444{fill:url(#SVGID_431_);}
	.st445{fill:url(#SVGID_432_);}
	.st446{fill:url(#SVGID_433_);}
	.st447{fill:url(#SVGID_434_);}
	.st448{fill:url(#SVGID_435_);}
	.st449{fill:url(#SVGID_436_);}
	.st450{fill:url(#SVGID_437_);}
	.st451{fill:url(#SVGID_438_);}
	.st452{fill:url(#SVGID_439_);}
	.st453{fill:url(#SVGID_440_);}
	.st454{fill:url(#SVGID_441_);}
	.st455{fill:url(#SVGID_442_);}
	.st456{fill:url(#SVGID_443_);}
	.st457{fill:url(#SVGID_444_);}
	.st458{fill:url(#SVGID_445_);}
	.st459{fill:url(#SVGID_446_);}
	.st460{fill:url(#SVGID_447_);}
	.st461{fill:url(#SVGID_448_);}
	.st462{fill:url(#SVGID_449_);}
	.st463{fill:url(#SVGID_450_);}
	.st464{fill:url(#SVGID_451_);}
	.st465{fill:url(#SVGID_452_);}
	.st466{fill:url(#SVGID_453_);}
	.st467{fill:url(#SVGID_454_);}
	.st468{fill:url(#SVGID_455_);}
	.st469{fill:url(#SVGID_456_);}
	.st470{fill:url(#SVGID_457_);}
	.st471{fill:url(#SVGID_458_);}
	.st472{fill:url(#SVGID_459_);}
	.st473{fill:url(#SVGID_460_);}
	.st474{fill:url(#SVGID_461_);}
	.st475{fill:url(#SVGID_462_);}
	.st476{fill:url(#SVGID_463_);}
	.st477{fill:url(#SVGID_464_);}
	.st478{fill:url(#SVGID_465_);}
	.st479{fill:url(#SVGID_466_);}
	.st480{fill:url(#SVGID_467_);}
	.st481{fill:url(#SVGID_468_);}
	.st482{fill:url(#SVGID_469_);}
	.st483{fill:url(#SVGID_470_);}
	.st484{fill:url(#SVGID_471_);}
	.st485{fill:url(#SVGID_472_);}
	.st486{fill:url(#SVGID_473_);}
	.st487{fill:url(#SVGID_474_);}
	.st488{fill:url(#SVGID_475_);}
	.st489{fill:url(#SVGID_476_);}
	.st490{fill:url(#SVGID_477_);}
	.st491{fill:url(#SVGID_478_);}
	.st492{fill:url(#SVGID_479_);}
	.st493{fill:url(#SVGID_480_);}
	.st494{fill:url(#SVGID_481_);}
	.st495{fill:url(#SVGID_482_);}
	.st496{fill:url(#SVGID_483_);}
	.st497{fill:url(#SVGID_484_);}
	.st498{fill:url(#SVGID_485_);}
	.st499{fill:url(#SVGID_486_);}
	.st500{fill:url(#SVGID_487_);}
	.st501{fill:url(#SVGID_488_);}
	.st502{fill:url(#SVGID_489_);}
	.st503{fill:url(#SVGID_490_);}
	.st504{fill:url(#SVGID_491_);}
	.st505{fill:url(#SVGID_492_);}
	.st506{fill:url(#SVGID_493_);}
	.st507{fill:url(#SVGID_494_);}
	.st508{fill:url(#SVGID_495_);}
	.st509{fill:url(#SVGID_496_);}
	.st510{fill:url(#SVGID_497_);}
	.st511{fill:url(#SVGID_498_);}
	.st512{fill:url(#SVGID_499_);}
	.st513{fill:url(#SVGID_500_);}
	.st514{fill:url(#SVGID_501_);}
	.st515{fill:url(#SVGID_502_);}
	.st516{fill:url(#SVGID_503_);}
	.st517{fill:url(#SVGID_504_);}
	.st518{fill:url(#SVGID_505_);}
	.st519{fill:url(#SVGID_506_);}
	.st520{fill:url(#SVGID_507_);}
	.st521{fill:url(#SVGID_508_);}
	.st522{fill:url(#SVGID_509_);}
	.st523{fill:url(#SVGID_510_);}
	.st524{fill:url(#SVGID_511_);}
	.st525{fill:url(#SVGID_512_);}
	.st526{fill:url(#SVGID_513_);}
	.st527{fill:url(#SVGID_514_);}
	.st528{fill:url(#SVGID_515_);}
	.st529{fill:url(#SVGID_516_);}
	.st530{fill:url(#SVGID_517_);}
	.st531{fill:url(#SVGID_518_);}
	.st532{fill:url(#SVGID_519_);}
	.st533{fill:url(#SVGID_520_);}
	.st534{fill:url(#SVGID_521_);}
	.st535{fill:url(#SVGID_522_);}
	.st536{fill:url(#SVGID_523_);}
	.st537{fill:url(#SVGID_524_);}
	.st538{fill:url(#SVGID_525_);}
	.st539{fill:url(#SVGID_526_);}
	.st540{fill:url(#SVGID_527_);}
	.st541{fill:url(#SVGID_528_);}
	.st542{fill:url(#SVGID_529_);}
	.st543{fill:url(#SVGID_530_);}
	.st544{fill:url(#SVGID_531_);}
	.st545{fill:url(#SVGID_532_);}
	.st546{fill:url(#SVGID_533_);}
	.st547{fill:url(#SVGID_534_);}
	.st548{fill:url(#SVGID_535_);}
	.st549{fill:url(#SVGID_536_);}
	.st550{fill:url(#SVGID_537_);}
	.st551{fill:url(#SVGID_538_);}
	.st552{fill:url(#SVGID_539_);}
	.st553{fill:url(#SVGID_540_);}
	.st554{fill:url(#SVGID_541_);}
	.st555{fill:url(#SVGID_542_);}
	.st556{fill:url(#SVGID_543_);}
	.st557{fill:url(#SVGID_544_);}
	.st558{fill:url(#SVGID_545_);}
	.st559{fill:url(#SVGID_546_);}
	.st560{fill:url(#SVGID_547_);}
	.st561{fill:url(#SVGID_548_);}
	.st562{fill:url(#SVGID_549_);}
	.st563{fill:url(#SVGID_550_);}
	.st564{fill:url(#SVGID_551_);}
	.st565{fill:url(#SVGID_552_);}
	.st566{fill:url(#SVGID_553_);}
	.st567{fill:url(#SVGID_554_);}
	.st568{fill:url(#SVGID_555_);}
	.st569{fill:url(#SVGID_556_);}
	.st570{fill:url(#SVGID_557_);}
	.st571{fill:url(#SVGID_558_);}
	.st572{fill:url(#SVGID_559_);}
	.st573{fill:url(#SVGID_560_);}
	.st574{fill:url(#SVGID_561_);}
	.st575{fill:url(#SVGID_562_);}
	.st576{fill:url(#SVGID_563_);}
	.st577{fill:url(#SVGID_564_);}
	.st578{fill:url(#SVGID_565_);}
	.st579{fill:url(#SVGID_566_);}
	.st580{fill:url(#SVGID_567_);}
	.st581{fill:url(#SVGID_568_);}
</style>
<rect class="st0" width="1000" height="1000"/>
<g>
	<linearGradient id="SVGID_1_" gradientUnits="userSpaceOnUse" x1="665.4208" y1="705.8974" x2="558.6141" y2="358.1547">
		<stop  offset="0" style="stop-color:#F5FFF7"/>
		<stop  offset="0.2615" style="stop-color:#EBFFF0"/>
		<stop  offset="0.5453" style="stop-color:#E0FFE8"/>
		<stop  offset="0.762" style="stop-color:#D6FFE0"/>
		<stop  offset="1" style="stop-color:#CCFFD9"/>
	</linearGradient>
	<path class="st4" d="M725.84,473.46l-34.97-60.56l-1.01-1.75l-18.92-32.77c-21.12-25.21-52.82-41.26-88.28-41.26
		c-10.64,0-20.93,1.47-30.71,4.17c-19.47,5.38-36.87,15.71-50.74,29.6c-2.32,2.32-4.52,4.75-6.63,7.26l-10.74,18.61
		c6.55-6.72,14.27-12.3,22.85-16.38c10.34-4.92,21.9-7.68,34.12-7.68c27.06,0,50.95,13.53,65.32,34.17l6.71,11.62l15.55,26.93
		l37.84,65.54c2.47,4.29,4.6,8.64,6.41,13.03c9.83,23.94,9.9,49.11,2.5,71.59c-4.64,14.09-12.21,27.13-22.17,38.13
		c-6.41,7.08-13.8,13.31-22.03,18.44c-10.09,44.78-46.26,79.65-91.73,87.84h32.75c46.19,0,86.52-16.9,117.06-43.83
		c29.66-26.15,50.07-61.76,57.63-100.58C754.36,556,748.72,513.08,725.84,473.46z"/>
	<linearGradient id="SVGID_2_" gradientUnits="userSpaceOnUse" x1="561.8105" y1="297.9838" x2="339.9175" y2="562.1027">
		<stop  offset="0" style="stop-color:#F0ECEC"/>
		<stop  offset="0.2615" style="stop-color:#E0D9D9"/>
		<stop  offset="0.5453" style="stop-color:#D1C6C6"/>
		<stop  offset="0.762" style="stop-color:#C2B4B4"/>
		<stop  offset="1" style="stop-color:#B2A1A1"/>
	</linearGradient>
	<path class="st5" d="M653.89,348.83c-23.1-40-57.9-66.48-96.49-79.46c-37.1-12.48-77.7-12.48-114.79,0
		c-38.59,12.99-73.39,39.46-96.49,79.46l-34.32,59.45l-1.66,2.87l-17.43,30.18c-4.67,12.52-7.23,26.06-7.23,40.2
		c0,32,13.07,60.94,34.15,81.81c13.99,13.85,31.51,24.12,51.09,29.37c4.73,1.27,9.59,2.23,14.54,2.89h22.61h0.81
		c-0.26-0.04-0.51-0.09-0.77-0.14c-11.5-1.98-22.16-6.43-31.4-12.78c-20.85-14.34-34.52-38.35-34.52-65.56
		c0-11.4,2.42-22.23,6.73-32.03l8.62-14.93l14.28-24.73l37.84-65.54c2.5-4.34,5.24-8.4,8.19-12.2
		c15.66-20.21,37.12-32.73,59.99-37.65c14.72-3.17,30.01-3.17,44.74,0c10.28,2.21,20.28,5.95,29.59,11.26
		c9.78-2.7,20.07-4.17,30.71-4.17c35.46,0,67.16,16.04,88.28,41.26L653.89,348.83z"/>
	<linearGradient id="SVGID_3_" gradientUnits="userSpaceOnUse" x1="480.2816" y1="333.0728" x2="387.5502" y2="580.6324">
		<stop  offset="0" style="stop-color:#F0ECEC"/>
		<stop  offset="0.2615" style="stop-color:#E0D9D9"/>
		<stop  offset="0.5453" style="stop-color:#D1C6C6"/>
		<stop  offset="0.762" style="stop-color:#C2B4B4"/>
		<stop  offset="1" style="stop-color:#B2A1A1"/>
	</linearGradient>
	<path class="st6" d="M522.37,330.03c-14.72-3.17-30.01-3.17-44.74,0c-22.87,4.92-44.33,17.44-59.99,37.65
		c-2.94,3.8-5.68,7.86-8.19,12.2l-37.84,65.54l-14.28,24.73l-8.62,14.93c-4.32,9.8-6.73,20.63-6.73,32.03
		c0,27.21,13.68,51.22,34.52,65.56c9.24,6.36,19.9,10.8,31.4,12.78c0.26,0.04,0.51,0.1,0.77,0.14h7.24h7.55
		c-1.66,0-3.27-0.13-4.84-0.37c-3.51-0.53-6.77-1.62-9.73-3.16c-14.99-7.84-22.05-27.3-12.64-43.59l44.09-76.36l0.44-0.76
		l15.02-26.02l8.46-14.65l10.11-17.51l7.56-13.1l1.92-3.33l10.74-18.61c2.11-2.51,4.31-4.94,6.63-7.26
		c13.87-13.89,31.28-24.22,50.74-29.6C542.65,335.99,532.65,332.25,522.37,330.03z"/>
	<linearGradient id="SVGID_4_" gradientUnits="userSpaceOnUse" x1="476.7556" y1="427.1311" x2="430.39" y2="591.619">
		<stop  offset="0" style="stop-color:#FFFFFF"/>
		<stop  offset="1" style="stop-color:#000000"/>
	</linearGradient>
	<path class="st7" d="M653.89,348.83c-23.1-40-57.9-66.48-96.49-79.46c-37.1-12.48-77.7-12.48-114.79,0
		c-38.59,12.99-73.39,39.46-96.49,79.46l-34.32,59.45l-1.66,2.87l-17.43,30.18c-4.67,12.52-7.23,26.06-7.23,40.2
		c0,32,13.07,60.94,34.15,81.81c13.99,13.85,31.51,24.12,51.09,29.37c4.73,1.27,9.59,2.23,14.54,2.89h22.61h0.81h7.24h7.55
		c-1.66,0-3.27-0.13-4.84-0.37c-3.51-0.53-6.77-1.62-9.73-3.16c-14.99-7.84-22.05-27.3-12.64-43.59l44.09-76.36l0.44-0.76
		l15.02-26.02l8.46-14.65l10.11-17.51l7.56-13.1l1.92-3.33l10.74-18.61c2.11-2.51,4.31-4.94,6.63-7.26
		c13.87-13.89,31.28-24.22,50.74-29.6c9.78-2.7,20.07-4.17,30.71-4.17c35.46,0,67.16,16.04,88.28,41.26L653.89,348.83z"/>
	<linearGradient id="SVGID_5_" gradientUnits="userSpaceOnUse" x1="247.5354" y1="548.7626" x2="601.0738" y2="695.3114">
		<stop  offset="0" style="stop-color:#E9E9F0"/>
		<stop  offset="0.2615" style="stop-color:#D3D2E0"/>
		<stop  offset="0.5453" style="stop-color:#BCBCD1"/>
		<stop  offset="0.762" style="stop-color:#A6A5C2"/>
		<stop  offset="1" style="stop-color:#908FB2"/>
	</linearGradient>
	<path class="st8" d="M629.48,595.59c-0.52-1.84-1.08-3.66-1.68-5.45l-11.46-19.84c1.81,6.66,2.79,13.65,2.79,20.88
		c0,1.48-0.05,2.95-0.13,4.42c-1.89,34.59-25.89,63.27-58.1,72.2H518.3H500h-75.68c-4.61,0-9.12-0.3-13.53-0.85
		c-25.81-3.24-47.83-15.63-63.75-33.23c-9.96-11-17.53-24.03-22.17-38.13c-3.39-10.31-5.21-21.19-5.24-32.26
		c-21.08-20.86-34.15-49.81-34.15-81.81c0-14.14,2.56-27.68,7.23-40.2l-18.55,32.13c-22.87,39.61-28.51,82.54-20.8,122.13
		c7.56,38.82,27.97,74.43,57.63,100.58C341.52,723.1,381.85,740,428.04,740h70.1H500h39.21c45.47-8.19,81.63-43.06,91.73-87.84
		c1.84-8.18,2.85-16.67,2.85-25.41C633.78,615.95,632.26,605.51,629.48,595.59z"/>
	<linearGradient id="SVGID_6_" gradientUnits="userSpaceOnUse" x1="327.2188" y1="604.0836" x2="605.413" y2="611.5352">
		<stop  offset="0" style="stop-color:#E9E9F0"/>
		<stop  offset="0.2615" style="stop-color:#D3D2E0"/>
		<stop  offset="0.5453" style="stop-color:#BCBCD1"/>
		<stop  offset="0.762" style="stop-color:#A6A5C2"/>
		<stop  offset="1" style="stop-color:#908FB2"/>
	</linearGradient>
	<path class="st9" d="M616.34,570.29l-3.95-6.85l-7.38-12.78c-0.08-0.1-0.17-0.19-0.25-0.29c2.28,4.62,3.29,9.44,3.23,14.14
		c-0.2,16.26-13.26,31.08-31.46,31.08H500h-39.8h-25.85h-10.89h-7.55h-7.24h-0.81h-22.61c-4.95-0.66-9.81-1.62-14.54-2.89
		c-19.58-5.25-37.1-15.52-51.09-29.37c0.03,11.07,1.85,21.94,5.24,32.26c4.64,14.09,12.21,27.13,22.17,38.13
		c15.93,17.59,37.94,29.98,63.75,33.23c4.4,0.55,8.91,0.85,13.53,0.85H500h18.3h42.61c32.21-8.94,56.2-37.62,58.1-72.2
		c0.08-1.46,0.13-2.93,0.13-4.42C619.13,583.95,618.15,576.95,616.34,570.29z"/>
	<linearGradient id="SVGID_7_" gradientUnits="userSpaceOnUse" x1="365.9811" y1="624.3323" x2="579.0425" y2="498.4826">
		<stop  offset="0" style="stop-color:#FFFFFF"/>
		<stop  offset="1" style="stop-color:#000000"/>
	</linearGradient>
	<path class="st10" d="M629.48,595.59c-0.52-1.84-1.08-3.66-1.68-5.45l-11.46-19.84l-3.95-6.85l-7.38-12.78
		c-0.08-0.1-0.17-0.19-0.25-0.29c2.28,4.62,3.29,9.44,3.23,14.14c-0.2,16.26-13.26,31.08-31.46,31.08H500h-39.8h-25.85h-10.89h-7.55
		h-7.24h-0.81h-22.61c-4.95-0.66-9.81-1.62-14.54-2.89c-19.58-5.25-37.1-15.52-51.09-29.37c-21.08-20.86-34.15-49.81-34.15-81.81
		c0-14.14,2.56-27.68,7.23-40.2l-18.55,32.13c-22.87,39.61-28.51,82.54-20.8,122.13c7.56,38.82,27.97,74.43,57.63,100.58
		C341.52,723.1,381.85,740,428.04,740h70.1H500h39.21c45.47-8.19,81.63-43.06,91.73-87.84c1.84-8.18,2.85-16.67,2.85-25.41
		C633.78,615.95,632.26,605.51,629.48,595.59z"/>
	<linearGradient id="SVGID_8_" gradientUnits="userSpaceOnUse" x1="671.0626" y1="588.1896" x2="505.4709" y2="401.8989">
		<stop  offset="0" style="stop-color:#F5FFF7"/>
		<stop  offset="0.2615" style="stop-color:#EBFFF0"/>
		<stop  offset="0.5453" style="stop-color:#E0FFE8"/>
		<stop  offset="0.762" style="stop-color:#D6FFE0"/>
		<stop  offset="1" style="stop-color:#CCFFD9"/>
	</linearGradient>
	<path class="st11" d="M672.63,524c-1.8-4.39-3.93-8.75-6.41-13.03l-37.84-65.54l-15.55-26.93l-6.71-11.62
		c-14.37-20.65-38.25-34.17-65.32-34.17c-12.21,0-23.78,2.76-34.12,7.68c-8.58,4.08-16.3,9.65-22.85,16.38l-1.92,3.33l-7.56,13.1
		c-0.06,0.18-0.12,0.36-0.18,0.54c3.03-4.4,6.91-7.72,11.24-9.97c14.1-7.33,32.86-3.29,41.78,12.15l21.89,37.92l1.13,1.96l3.02,5.24
		l12.22,21.17l20.49,35.5l10.1,17.5c0,0,7.67,13.28,7.67,13.28l1.27,2.19l7.38,12.78c0,0,3.95,6.85,3.95,6.85
		c4.6,7.96,10.02,15.91,12.98,24.81c3.33,10,4.46,21.16,4.46,31.65c0,8.73-1.01,17.23-2.85,25.41c8.23-5.14,15.62-11.37,22.03-18.44
		c9.96-11,17.53-24.03,22.17-38.13C682.53,573.11,682.46,547.94,672.63,524z"/>
	<linearGradient id="SVGID_9_" gradientUnits="userSpaceOnUse" x1="651.1776" y1="590.6988" x2="463.5069" y2="453.8096">
		<stop  offset="0" style="stop-color:#FFFFFF"/>
		<stop  offset="1" style="stop-color:#000000"/>
	</linearGradient>
	<path class="st12" d="M725.84,473.46l-34.97-60.56l-1.01-1.75l-18.92-32.77c-21.12-25.21-52.82-41.26-88.28-41.26
		c-10.64,0-20.93,1.47-30.71,4.17c-19.47,5.38-36.87,15.71-50.74,29.6c-2.32,2.32-4.52,4.75-6.63,7.26l-10.74,18.61l-1.92,3.33
		l-7.56,13.1c-0.06,0.18-0.12,0.36-0.18,0.54c3.03-4.4,6.91-7.72,11.24-9.97c14.1-7.33,32.86-3.29,41.78,12.15l21.89,37.92
		l1.13,1.96l3.02,5.24l12.22,21.17l20.49,35.5l10.1,17.5c0,0,7.67,13.28,7.67,13.28l1.27,2.19l7.38,12.78c0,0,3.95,6.85,3.95,6.85
		c4.6,7.96,10.02,15.91,12.98,24.81c3.33,10,4.46,21.16,4.46,31.65c0,8.73-1.01,17.23-2.85,25.41
		c-10.09,44.78-46.26,79.65-91.73,87.84h32.75c46.19,0,86.52-16.9,117.06-43.83c29.66-26.15,50.07-61.76,57.63-100.58
		C754.36,556,748.72,513.08,725.84,473.46z"/>
</g>
</svg>
